<mxfile host="app.diagrams.net" modified="2023-08-15T14:29:11.435Z" agent="Mozilla/5.0 (Windows NT 10.0; Win64; x64) AppleWebKit/537.36 (KHTML, like Gecko) Chrome/115.0.0.0 Safari/537.36" etag="1SShvZlog7Bwd6-EzeKs" version="21.6.8" type="device">
  <diagram name="Página-1" id="OojbVuxw93xa1ULGr0nL">
    <mxGraphModel dx="2657" dy="1266" grid="1" gridSize="10" guides="1" tooltips="1" connect="1" arrows="1" fold="1" page="1" pageScale="1" pageWidth="827" pageHeight="1169" math="0" shadow="0">
      <root>
        <mxCell id="0" />
        <mxCell id="1" parent="0" />
        <mxCell id="Xt7bGyLg8HDcr2M8Km3x-40" style="edgeStyle=orthogonalEdgeStyle;rounded=0;orthogonalLoop=1;jettySize=auto;html=1;endArrow=ERzeroToMany;endFill=0;startArrow=ERone;startFill=0;" parent="1" source="eECu6zsZxVr2fr7YNmku-34" edge="1">
          <mxGeometry relative="1" as="geometry">
            <mxPoint x="1490" y="620" as="targetPoint" />
          </mxGeometry>
        </mxCell>
        <mxCell id="eECu6zsZxVr2fr7YNmku-34" value="servico" style="swimlane;fontStyle=1;align=center;verticalAlign=top;childLayout=stackLayout;horizontal=1;startSize=26;horizontalStack=0;resizeParent=1;resizeParentMax=0;resizeLast=0;collapsible=1;marginBottom=0;" parent="1" vertex="1">
          <mxGeometry x="1590" y="542" width="260" height="86" as="geometry" />
        </mxCell>
        <mxCell id="eECu6zsZxVr2fr7YNmku-35" value="id: SERIAL" style="text;align=left;verticalAlign=top;spacingLeft=4;spacingRight=4;overflow=hidden;rotatable=0;points=[[0,0.5],[1,0.5]];portConstraint=eastwest;fillColor=#fff2cc;strokeColor=#d6b656;" parent="eECu6zsZxVr2fr7YNmku-34" vertex="1">
          <mxGeometry y="26" width="260" height="26" as="geometry" />
        </mxCell>
        <mxCell id="eECu6zsZxVr2fr7YNmku-36" value="nome: VARCHAR(300)" style="text;align=left;verticalAlign=top;spacingLeft=4;spacingRight=4;overflow=hidden;rotatable=0;points=[[0,0.5],[1,0.5]];portConstraint=eastwest;rounded=0;shadow=0;html=0;" parent="eECu6zsZxVr2fr7YNmku-34" vertex="1">
          <mxGeometry y="52" width="260" height="26" as="geometry" />
        </mxCell>
        <mxCell id="eECu6zsZxVr2fr7YNmku-37" value="" style="line;strokeWidth=1;fillColor=none;align=left;verticalAlign=middle;spacingTop=-1;spacingLeft=3;spacingRight=3;rotatable=0;labelPosition=right;points=[];portConstraint=eastwest;strokeColor=inherit;" parent="eECu6zsZxVr2fr7YNmku-34" vertex="1">
          <mxGeometry y="78" width="260" height="8" as="geometry" />
        </mxCell>
        <mxCell id="Xt7bGyLg8HDcr2M8Km3x-41" style="edgeStyle=orthogonalEdgeStyle;rounded=0;orthogonalLoop=1;jettySize=auto;html=1;entryX=0.75;entryY=0;entryDx=0;entryDy=0;" parent="1" source="eECu6zsZxVr2fr7YNmku-39" target="eECu6zsZxVr2fr7YNmku-34" edge="1">
          <mxGeometry relative="1" as="geometry" />
        </mxCell>
        <mxCell id="eECu6zsZxVr2fr7YNmku-39" value="&#39;Estudo de Viabilidade Técnico Econômica&#39;, &lt;br&gt;&#39;Mapeamento e Otimização de Processos&#39;,&lt;br style=&quot;border-color: var(--border-color); padding: 0px; margin: 0px; text-align: left;&quot;&gt;&lt;span style=&quot;text-align: left;&quot;&gt;&#39;Pesquisa de Clima Organizacional&#39;,&lt;br&gt;&#39;Pesquisa de Mercado&#39;&lt;br&gt;&#39;Pesquisa de Satisfação&#39;,&lt;br&gt;&amp;nbsp;&#39;Planejamento Estratégico&#39;,&lt;br&gt;&#39;Planejamento Financeiro&#39;,&lt;br&gt;&#39;Clima Organizacional&#39;,&lt;br&gt;&#39;Plano de Negócios&#39;,&lt;br&gt;&#39;Plano de Marketing&#39;,&lt;br&gt;&#39;Precificação&#39;,&lt;br&gt;&#39;Recrutamento e Seleção&#39;,&lt;br&gt;&#39;Análise de Mercado&#39;,&lt;br&gt;&#39;Pesquisa de Marketing&#39;&lt;br&gt;&lt;/span&gt;" style="html=1;dropTarget=0;" parent="1" vertex="1">
          <mxGeometry x="1660" y="140" width="400" height="230" as="geometry" />
        </mxCell>
        <mxCell id="eECu6zsZxVr2fr7YNmku-40" value="" style="shape=module;jettyWidth=8;jettyHeight=4;" parent="eECu6zsZxVr2fr7YNmku-39" vertex="1">
          <mxGeometry x="1" width="20" height="20" relative="1" as="geometry">
            <mxPoint x="-27" y="7" as="offset" />
          </mxGeometry>
        </mxCell>
        <mxCell id="eECu6zsZxVr2fr7YNmku-97" value="" style="group" parent="1" vertex="1" connectable="0">
          <mxGeometry x="160" y="270" width="360" height="160" as="geometry" />
        </mxCell>
        <mxCell id="eECu6zsZxVr2fr7YNmku-98" value="" style="shape=note;whiteSpace=wrap;html=1;backgroundOutline=1;darkOpacity=0.05;" parent="eECu6zsZxVr2fr7YNmku-97" vertex="1">
          <mxGeometry width="360" height="160" as="geometry" />
        </mxCell>
        <mxCell id="eECu6zsZxVr2fr7YNmku-99" value="" style="group" parent="eECu6zsZxVr2fr7YNmku-97" vertex="1" connectable="0">
          <mxGeometry x="65" y="46.25" width="210" height="67.5" as="geometry" />
        </mxCell>
        <mxCell id="eECu6zsZxVr2fr7YNmku-100" value="" style="rounded=0;whiteSpace=wrap;html=1;fillColor=#f8cecc;strokeColor=#b85450;" parent="eECu6zsZxVr2fr7YNmku-99" vertex="1">
          <mxGeometry y="45" width="50" height="20" as="geometry" />
        </mxCell>
        <mxCell id="eECu6zsZxVr2fr7YNmku-101" value="" style="rounded=0;whiteSpace=wrap;html=1;fillColor=#fff2cc;strokeColor=#d6b656;" parent="eECu6zsZxVr2fr7YNmku-99" vertex="1">
          <mxGeometry y="5" width="50" height="20" as="geometry" />
        </mxCell>
        <mxCell id="eECu6zsZxVr2fr7YNmku-102" value="Chave Primária" style="text;html=1;strokeColor=none;fillColor=none;align=center;verticalAlign=middle;whiteSpace=wrap;rounded=0;" parent="eECu6zsZxVr2fr7YNmku-99" vertex="1">
          <mxGeometry x="100" width="100" height="25" as="geometry" />
        </mxCell>
        <mxCell id="eECu6zsZxVr2fr7YNmku-103" value="Chave Estrangeira" style="text;html=1;strokeColor=none;fillColor=none;align=center;verticalAlign=middle;whiteSpace=wrap;rounded=0;" parent="eECu6zsZxVr2fr7YNmku-99" vertex="1">
          <mxGeometry x="100" y="42.5" width="110" height="25" as="geometry" />
        </mxCell>
        <mxCell id="eECu6zsZxVr2fr7YNmku-104" value="" style="endArrow=classic;html=1;rounded=0;exitX=1;exitY=0.5;exitDx=0;exitDy=0;entryX=0;entryY=0.5;entryDx=0;entryDy=0;" parent="eECu6zsZxVr2fr7YNmku-99" source="eECu6zsZxVr2fr7YNmku-100" target="eECu6zsZxVr2fr7YNmku-103" edge="1">
          <mxGeometry width="50" height="50" relative="1" as="geometry">
            <mxPoint x="50" y="95" as="sourcePoint" />
            <mxPoint x="100" y="45" as="targetPoint" />
            <Array as="points">
              <mxPoint x="70" y="55" />
            </Array>
          </mxGeometry>
        </mxCell>
        <mxCell id="eECu6zsZxVr2fr7YNmku-105" value="" style="endArrow=classic;html=1;rounded=0;exitX=1;exitY=0.5;exitDx=0;exitDy=0;" parent="eECu6zsZxVr2fr7YNmku-99" source="eECu6zsZxVr2fr7YNmku-101" edge="1">
          <mxGeometry width="50" height="50" relative="1" as="geometry">
            <mxPoint x="90" y="155" as="sourcePoint" />
            <mxPoint x="100" y="15" as="targetPoint" />
          </mxGeometry>
        </mxCell>
        <mxCell id="Xt7bGyLg8HDcr2M8Km3x-54" style="edgeStyle=orthogonalEdgeStyle;rounded=0;orthogonalLoop=1;jettySize=auto;html=1;entryX=0;entryY=0.5;entryDx=0;entryDy=0;endArrow=ERzeroToMany;endFill=0;startArrow=ERone;startFill=0;" parent="1" source="Xt7bGyLg8HDcr2M8Km3x-1" target="Xt7bGyLg8HDcr2M8Km3x-32" edge="1">
          <mxGeometry relative="1" as="geometry" />
        </mxCell>
        <mxCell id="Xt7bGyLg8HDcr2M8Km3x-1" value="cliente" style="swimlane;fontStyle=1;align=center;verticalAlign=top;childLayout=stackLayout;horizontal=1;startSize=26;horizontalStack=0;resizeParent=1;resizeParentMax=0;resizeLast=0;collapsible=1;marginBottom=0;" parent="1" vertex="1">
          <mxGeometry x="830" y="520" width="260" height="320" as="geometry" />
        </mxCell>
        <mxCell id="Xt7bGyLg8HDcr2M8Km3x-2" value="id: SERIAL" style="text;align=left;verticalAlign=top;spacingLeft=4;spacingRight=4;overflow=hidden;rotatable=0;points=[[0,0.5],[1,0.5]];portConstraint=eastwest;fillColor=#fff2cc;strokeColor=#d6b656;" parent="Xt7bGyLg8HDcr2M8Km3x-1" vertex="1">
          <mxGeometry y="26" width="260" height="26" as="geometry" />
        </mxCell>
        <mxCell id="Xt7bGyLg8HDcr2M8Km3x-3" value="nome: VARCHAR(300)" style="text;align=left;verticalAlign=top;spacingLeft=4;spacingRight=4;overflow=hidden;rotatable=0;points=[[0,0.5],[1,0.5]];portConstraint=eastwest;rounded=0;shadow=0;html=0;" parent="Xt7bGyLg8HDcr2M8Km3x-1" vertex="1">
          <mxGeometry y="52" width="260" height="26" as="geometry" />
        </mxCell>
        <mxCell id="Xt7bGyLg8HDcr2M8Km3x-5" value="nome_empresa: VARCHAR(300)" style="text;align=left;verticalAlign=top;spacingLeft=4;spacingRight=4;overflow=hidden;rotatable=0;points=[[0,0.5],[1,0.5]];portConstraint=eastwest;rounded=0;shadow=0;html=0;" parent="Xt7bGyLg8HDcr2M8Km3x-1" vertex="1">
          <mxGeometry y="78" width="260" height="26" as="geometry" />
        </mxCell>
        <mxCell id="Xt7bGyLg8HDcr2M8Km3x-6" value="tipo_cliente: VARCHAR(300)" style="text;align=left;verticalAlign=top;spacingLeft=4;spacingRight=4;overflow=hidden;rotatable=0;points=[[0,0.5],[1,0.5]];portConstraint=eastwest;rounded=0;shadow=0;html=0;" parent="Xt7bGyLg8HDcr2M8Km3x-1" vertex="1">
          <mxGeometry y="104" width="260" height="26" as="geometry" />
        </mxCell>
        <mxCell id="Xt7bGyLg8HDcr2M8Km3x-7" value="idade: SMALLINT" style="text;align=left;verticalAlign=top;spacingLeft=4;spacingRight=4;overflow=hidden;rotatable=0;points=[[0,0.5],[1,0.5]];portConstraint=eastwest;rounded=0;shadow=0;html=0;" parent="Xt7bGyLg8HDcr2M8Km3x-1" vertex="1">
          <mxGeometry y="130" width="260" height="26" as="geometry" />
        </mxCell>
        <mxCell id="Xt7bGyLg8HDcr2M8Km3x-8" value="negociador: VARCHAR(300)" style="text;align=left;verticalAlign=top;spacingLeft=4;spacingRight=4;overflow=hidden;rotatable=0;points=[[0,0.5],[1,0.5]];portConstraint=eastwest;rounded=0;shadow=0;html=0;" parent="Xt7bGyLg8HDcr2M8Km3x-1" vertex="1">
          <mxGeometry y="156" width="260" height="26" as="geometry" />
        </mxCell>
        <mxCell id="Xt7bGyLg8HDcr2M8Km3x-9" value="estado: VARCHAR(150)" style="text;align=left;verticalAlign=top;spacingLeft=4;spacingRight=4;overflow=hidden;rotatable=0;points=[[0,0.5],[1,0.5]];portConstraint=eastwest;rounded=0;shadow=0;html=0;" parent="Xt7bGyLg8HDcr2M8Km3x-1" vertex="1">
          <mxGeometry y="182" width="260" height="26" as="geometry" />
        </mxCell>
        <mxCell id="Xt7bGyLg8HDcr2M8Km3x-11" value="cidade: VARCHAR(150)" style="text;align=left;verticalAlign=top;spacingLeft=4;spacingRight=4;overflow=hidden;rotatable=0;points=[[0,0.5],[1,0.5]];portConstraint=eastwest;rounded=0;shadow=0;html=0;" parent="Xt7bGyLg8HDcr2M8Km3x-1" vertex="1">
          <mxGeometry y="208" width="260" height="26" as="geometry" />
        </mxCell>
        <mxCell id="Xt7bGyLg8HDcr2M8Km3x-10" value="sexo: VARCHAR(100)" style="text;align=left;verticalAlign=top;spacingLeft=4;spacingRight=4;overflow=hidden;rotatable=0;points=[[0,0.5],[1,0.5]];portConstraint=eastwest;rounded=0;shadow=0;html=0;" parent="Xt7bGyLg8HDcr2M8Km3x-1" vertex="1">
          <mxGeometry y="234" width="260" height="26" as="geometry" />
        </mxCell>
        <mxCell id="Xt7bGyLg8HDcr2M8Km3x-12" value="id_porte_cliente: SMALLINT, FK  porte_cliente(id)" style="text;align=left;verticalAlign=top;spacingLeft=4;spacingRight=4;overflow=hidden;rotatable=0;points=[[0,0.5],[1,0.5]];portConstraint=eastwest;rounded=0;shadow=0;html=0;fillColor=#f8cecc;strokeColor=#b85450;" parent="Xt7bGyLg8HDcr2M8Km3x-1" vertex="1">
          <mxGeometry y="260" width="260" height="26" as="geometry" />
        </mxCell>
        <mxCell id="3DhGtUNR9gq0dcqXQN8T-7" value="data_criacao: TIMESTAMP, DEFAULT NOW()" style="text;align=left;verticalAlign=top;spacingLeft=4;spacingRight=4;overflow=hidden;rotatable=0;points=[[0,0.5],[1,0.5]];portConstraint=eastwest;rounded=0;shadow=0;html=0;" parent="Xt7bGyLg8HDcr2M8Km3x-1" vertex="1">
          <mxGeometry y="286" width="260" height="26" as="geometry" />
        </mxCell>
        <mxCell id="Xt7bGyLg8HDcr2M8Km3x-4" value="" style="line;strokeWidth=1;fillColor=none;align=left;verticalAlign=middle;spacingTop=-1;spacingLeft=3;spacingRight=3;rotatable=0;labelPosition=right;points=[];portConstraint=eastwest;strokeColor=inherit;" parent="Xt7bGyLg8HDcr2M8Km3x-1" vertex="1">
          <mxGeometry y="312" width="260" height="8" as="geometry" />
        </mxCell>
        <mxCell id="Xt7bGyLg8HDcr2M8Km3x-18" style="edgeStyle=orthogonalEdgeStyle;rounded=0;orthogonalLoop=1;jettySize=auto;html=1;entryX=0;entryY=0.5;entryDx=0;entryDy=0;startArrow=ERone;startFill=0;endArrow=ERzeroToMany;endFill=0;" parent="1" source="Xt7bGyLg8HDcr2M8Km3x-13" target="Xt7bGyLg8HDcr2M8Km3x-12" edge="1">
          <mxGeometry relative="1" as="geometry">
            <mxPoint x="1170" y="790" as="targetPoint" />
          </mxGeometry>
        </mxCell>
        <mxCell id="Xt7bGyLg8HDcr2M8Km3x-13" value="porte_cliente" style="swimlane;fontStyle=1;align=center;verticalAlign=top;childLayout=stackLayout;horizontal=1;startSize=26;horizontalStack=0;resizeParent=1;resizeParentMax=0;resizeLast=0;collapsible=1;marginBottom=0;" parent="1" vertex="1">
          <mxGeometry x="490" y="737" width="260" height="112" as="geometry" />
        </mxCell>
        <mxCell id="Xt7bGyLg8HDcr2M8Km3x-14" value="id: SERIAL" style="text;align=left;verticalAlign=top;spacingLeft=4;spacingRight=4;overflow=hidden;rotatable=0;points=[[0,0.5],[1,0.5]];portConstraint=eastwest;fillColor=#fff2cc;strokeColor=#d6b656;" parent="Xt7bGyLg8HDcr2M8Km3x-13" vertex="1">
          <mxGeometry y="26" width="260" height="26" as="geometry" />
        </mxCell>
        <mxCell id="Xt7bGyLg8HDcr2M8Km3x-15" value="tipo: VARCHAR(60)" style="text;align=left;verticalAlign=top;spacingLeft=4;spacingRight=4;overflow=hidden;rotatable=0;points=[[0,0.5],[1,0.5]];portConstraint=eastwest;rounded=0;shadow=0;html=0;" parent="Xt7bGyLg8HDcr2M8Km3x-13" vertex="1">
          <mxGeometry y="52" width="260" height="26" as="geometry" />
        </mxCell>
        <mxCell id="Xt7bGyLg8HDcr2M8Km3x-16" value="desconto: FLOAT" style="text;align=left;verticalAlign=top;spacingLeft=4;spacingRight=4;overflow=hidden;rotatable=0;points=[[0,0.5],[1,0.5]];portConstraint=eastwest;rounded=0;shadow=0;html=0;" parent="Xt7bGyLg8HDcr2M8Km3x-13" vertex="1">
          <mxGeometry y="78" width="260" height="26" as="geometry" />
        </mxCell>
        <mxCell id="Xt7bGyLg8HDcr2M8Km3x-17" value="" style="line;strokeWidth=1;fillColor=none;align=left;verticalAlign=middle;spacingTop=-1;spacingLeft=3;spacingRight=3;rotatable=0;labelPosition=right;points=[];portConstraint=eastwest;strokeColor=inherit;" parent="Xt7bGyLg8HDcr2M8Km3x-13" vertex="1">
          <mxGeometry y="104" width="260" height="8" as="geometry" />
        </mxCell>
        <mxCell id="Xt7bGyLg8HDcr2M8Km3x-53" style="edgeStyle=orthogonalEdgeStyle;rounded=0;orthogonalLoop=1;jettySize=auto;html=1;entryX=0.5;entryY=0;entryDx=0;entryDy=0;" parent="1" source="Xt7bGyLg8HDcr2M8Km3x-19" target="Xt7bGyLg8HDcr2M8Km3x-13" edge="1">
          <mxGeometry relative="1" as="geometry" />
        </mxCell>
        <mxCell id="Xt7bGyLg8HDcr2M8Km3x-19" value="(&#39;empreendedor&#39;, 0), &lt;br&gt;(&#39;micro empresa&#39;, 0.05),&lt;br style=&quot;border-color: var(--border-color); padding: 0px; margin: 0px; text-align: left;&quot;&gt;(&lt;span style=&quot;text-align: left;&quot;&gt;&#39;pequeno porte&#39;, 0.1),&lt;/span&gt;&lt;br&gt;(&lt;span style=&quot;border-color: var(--border-color); text-align: left;&quot;&gt;&#39;médio porte&#39;, 0.3),&lt;br&gt;&lt;/span&gt;(&#39;grande porte&#39;, 0.4),&lt;span style=&quot;text-align: left;&quot;&gt;&lt;br&gt;&lt;/span&gt;" style="html=1;dropTarget=0;" parent="1" vertex="1">
          <mxGeometry x="535" y="550" width="170" height="141" as="geometry" />
        </mxCell>
        <mxCell id="Xt7bGyLg8HDcr2M8Km3x-20" value="" style="shape=module;jettyWidth=8;jettyHeight=4;" parent="Xt7bGyLg8HDcr2M8Km3x-19" vertex="1">
          <mxGeometry x="1" width="20" height="20" relative="1" as="geometry">
            <mxPoint x="-27" y="7" as="offset" />
          </mxGeometry>
        </mxCell>
        <mxCell id="Xt7bGyLg8HDcr2M8Km3x-22" value="precificacao" style="swimlane;fontStyle=1;align=center;verticalAlign=top;childLayout=stackLayout;horizontal=1;startSize=26;horizontalStack=0;resizeParent=1;resizeParentMax=0;resizeLast=0;collapsible=1;marginBottom=0;" parent="1" vertex="1">
          <mxGeometry x="1230" y="530" width="260" height="450" as="geometry" />
        </mxCell>
        <mxCell id="Xt7bGyLg8HDcr2M8Km3x-23" value="id: SERIAL" style="text;align=left;verticalAlign=top;spacingLeft=4;spacingRight=4;overflow=hidden;rotatable=0;points=[[0,0.5],[1,0.5]];portConstraint=eastwest;fillColor=#fff2cc;strokeColor=#d6b656;" parent="Xt7bGyLg8HDcr2M8Km3x-22" vertex="1">
          <mxGeometry y="26" width="260" height="26" as="geometry" />
        </mxCell>
        <mxCell id="Xt7bGyLg8HDcr2M8Km3x-31" value="composta: BOOLEAN" style="text;align=left;verticalAlign=top;spacingLeft=4;spacingRight=4;overflow=hidden;rotatable=0;points=[[0,0.5],[1,0.5]];portConstraint=eastwest;rounded=0;shadow=0;html=0;" parent="Xt7bGyLg8HDcr2M8Km3x-22" vertex="1">
          <mxGeometry y="52" width="260" height="26" as="geometry" />
        </mxCell>
        <mxCell id="Xt7bGyLg8HDcr2M8Km3x-42" value="id_servico: SMALLINT, servico(id)" style="text;align=left;verticalAlign=top;spacingLeft=4;spacingRight=4;overflow=hidden;rotatable=0;points=[[0,0.5],[1,0.5]];portConstraint=eastwest;rounded=0;shadow=0;html=0;fillColor=#f8cecc;strokeColor=#b85450;" parent="Xt7bGyLg8HDcr2M8Km3x-22" vertex="1">
          <mxGeometry y="78" width="260" height="26" as="geometry" />
        </mxCell>
        <mxCell id="Xt7bGyLg8HDcr2M8Km3x-34" value="id_servico_composto: SMALLINT, servico(id)" style="text;align=left;verticalAlign=top;spacingLeft=4;spacingRight=4;overflow=hidden;rotatable=0;points=[[0,0.5],[1,0.5]];portConstraint=eastwest;rounded=0;shadow=0;html=0;fillColor=#f8cecc;strokeColor=#b85450;" parent="Xt7bGyLg8HDcr2M8Km3x-22" vertex="1">
          <mxGeometry y="104" width="260" height="26" as="geometry" />
        </mxCell>
        <mxCell id="Xt7bGyLg8HDcr2M8Km3x-32" value="id_cliente: SMALLINT, FK  cliente(id)" style="text;align=left;verticalAlign=top;spacingLeft=4;spacingRight=4;overflow=hidden;rotatable=0;points=[[0,0.5],[1,0.5]];portConstraint=eastwest;rounded=0;shadow=0;html=0;fillColor=#f8cecc;strokeColor=#b85450;" parent="Xt7bGyLg8HDcr2M8Km3x-22" vertex="1">
          <mxGeometry y="130" width="260" height="26" as="geometry" />
        </mxCell>
        <mxCell id="Xt7bGyLg8HDcr2M8Km3x-49" value="tipo_negocio: VARCHAR(300)" style="text;align=left;verticalAlign=top;spacingLeft=4;spacingRight=4;overflow=hidden;rotatable=0;points=[[0,0.5],[1,0.5]];portConstraint=eastwest;rounded=0;shadow=0;html=0;" parent="Xt7bGyLg8HDcr2M8Km3x-22" vertex="1">
          <mxGeometry y="156" width="260" height="26" as="geometry" />
        </mxCell>
        <mxCell id="Xt7bGyLg8HDcr2M8Km3x-51" value="margem_incerteza: FLOAT" style="text;align=left;verticalAlign=top;spacingLeft=4;spacingRight=4;overflow=hidden;rotatable=0;points=[[0,0.5],[1,0.5]];portConstraint=eastwest;rounded=0;shadow=0;html=0;" parent="Xt7bGyLg8HDcr2M8Km3x-22" vertex="1">
          <mxGeometry y="182" width="260" height="26" as="geometry" />
        </mxCell>
        <mxCell id="Xt7bGyLg8HDcr2M8Km3x-56" value="qtd_membros: SMALLINT" style="text;align=left;verticalAlign=top;spacingLeft=4;spacingRight=4;overflow=hidden;rotatable=0;points=[[0,0.5],[1,0.5]];portConstraint=eastwest;rounded=0;shadow=0;html=0;" parent="Xt7bGyLg8HDcr2M8Km3x-22" vertex="1">
          <mxGeometry y="208" width="260" height="26" as="geometry" />
        </mxCell>
        <mxCell id="Xt7bGyLg8HDcr2M8Km3x-55" value="custo_variavel: FLOAT" style="text;align=left;verticalAlign=top;spacingLeft=4;spacingRight=4;overflow=hidden;rotatable=0;points=[[0,0.5],[1,0.5]];portConstraint=eastwest;rounded=0;shadow=0;html=0;" parent="Xt7bGyLg8HDcr2M8Km3x-22" vertex="1">
          <mxGeometry y="234" width="260" height="26" as="geometry" />
        </mxCell>
        <mxCell id="Xt7bGyLg8HDcr2M8Km3x-58" value="modalidade: VARCHAR(300)" style="text;align=left;verticalAlign=top;spacingLeft=4;spacingRight=4;overflow=hidden;rotatable=0;points=[[0,0.5],[1,0.5]];portConstraint=eastwest;rounded=0;shadow=0;html=0;" parent="Xt7bGyLg8HDcr2M8Km3x-22" vertex="1">
          <mxGeometry y="260" width="260" height="26" as="geometry" />
        </mxCell>
        <mxCell id="Xt7bGyLg8HDcr2M8Km3x-57" value="id_tipo_preco: SMALLINT, FK tipo_preco" style="text;align=left;verticalAlign=top;spacingLeft=4;spacingRight=4;overflow=hidden;rotatable=0;points=[[0,0.5],[1,0.5]];portConstraint=eastwest;rounded=0;shadow=0;html=0;fillColor=#f8cecc;strokeColor=#b85450;" parent="Xt7bGyLg8HDcr2M8Km3x-22" vertex="1">
          <mxGeometry y="286" width="260" height="26" as="geometry" />
        </mxCell>
        <mxCell id="Xt7bGyLg8HDcr2M8Km3x-73" value="entrada: FLOAT" style="text;align=left;verticalAlign=top;spacingLeft=4;spacingRight=4;overflow=hidden;rotatable=0;points=[[0,0.5],[1,0.5]];portConstraint=eastwest;rounded=0;shadow=0;html=0;" parent="Xt7bGyLg8HDcr2M8Km3x-22" vertex="1">
          <mxGeometry y="312" width="260" height="26" as="geometry" />
        </mxCell>
        <mxCell id="Xt7bGyLg8HDcr2M8Km3x-75" value="parcelado: SMALLINT" style="text;align=left;verticalAlign=top;spacingLeft=4;spacingRight=4;overflow=hidden;rotatable=0;points=[[0,0.5],[1,0.5]];portConstraint=eastwest;rounded=0;shadow=0;html=0;" parent="Xt7bGyLg8HDcr2M8Km3x-22" vertex="1">
          <mxGeometry y="338" width="260" height="26" as="geometry" />
        </mxCell>
        <mxCell id="Xt7bGyLg8HDcr2M8Km3x-74" value="valor_parcelas: FLOAT" style="text;align=left;verticalAlign=top;spacingLeft=4;spacingRight=4;overflow=hidden;rotatable=0;points=[[0,0.5],[1,0.5]];portConstraint=eastwest;rounded=0;shadow=0;html=0;" parent="Xt7bGyLg8HDcr2M8Km3x-22" vertex="1">
          <mxGeometry y="364" width="260" height="26" as="geometry" />
        </mxCell>
        <mxCell id="Xt7bGyLg8HDcr2M8Km3x-76" value="valor_a_vista: FLOAT" style="text;align=left;verticalAlign=top;spacingLeft=4;spacingRight=4;overflow=hidden;rotatable=0;points=[[0,0.5],[1,0.5]];portConstraint=eastwest;rounded=0;shadow=0;html=0;" parent="Xt7bGyLg8HDcr2M8Km3x-22" vertex="1">
          <mxGeometry y="390" width="260" height="26" as="geometry" />
        </mxCell>
        <mxCell id="3DhGtUNR9gq0dcqXQN8T-8" value="data_criacao: TIMESTAMP, DEFAULT NOW()" style="text;align=left;verticalAlign=top;spacingLeft=4;spacingRight=4;overflow=hidden;rotatable=0;points=[[0,0.5],[1,0.5]];portConstraint=eastwest;rounded=0;shadow=0;html=0;" parent="Xt7bGyLg8HDcr2M8Km3x-22" vertex="1">
          <mxGeometry y="416" width="260" height="26" as="geometry" />
        </mxCell>
        <mxCell id="Xt7bGyLg8HDcr2M8Km3x-33" value="" style="line;strokeWidth=1;fillColor=none;align=left;verticalAlign=middle;spacingTop=-1;spacingLeft=3;spacingRight=3;rotatable=0;labelPosition=right;points=[];portConstraint=eastwest;strokeColor=inherit;" parent="Xt7bGyLg8HDcr2M8Km3x-22" vertex="1">
          <mxGeometry y="442" width="260" height="8" as="geometry" />
        </mxCell>
        <mxCell id="Xt7bGyLg8HDcr2M8Km3x-45" style="edgeStyle=orthogonalEdgeStyle;rounded=0;orthogonalLoop=1;jettySize=auto;html=1;entryX=1;entryY=0.5;entryDx=0;entryDy=0;exitX=0.5;exitY=1;exitDx=0;exitDy=0;" parent="1" source="Xt7bGyLg8HDcr2M8Km3x-43" target="Xt7bGyLg8HDcr2M8Km3x-31" edge="1">
          <mxGeometry relative="1" as="geometry">
            <mxPoint x="1510" y="600" as="targetPoint" />
            <Array as="points">
              <mxPoint x="1510" y="420" />
              <mxPoint x="1510" y="595" />
            </Array>
          </mxGeometry>
        </mxCell>
        <mxCell id="Xt7bGyLg8HDcr2M8Km3x-43" value="&lt;span style=&quot;text-align: left;&quot;&gt;Se &#39;true&#39; deve passar o &lt;br&gt;id_servico_composto&lt;br&gt;&lt;/span&gt;" style="html=1;dropTarget=0;" parent="1" vertex="1">
          <mxGeometry x="1390" y="320" width="170" height="100" as="geometry" />
        </mxCell>
        <mxCell id="Xt7bGyLg8HDcr2M8Km3x-44" value="" style="shape=module;jettyWidth=8;jettyHeight=4;" parent="Xt7bGyLg8HDcr2M8Km3x-43" vertex="1">
          <mxGeometry x="1" width="20" height="20" relative="1" as="geometry">
            <mxPoint x="-27" y="7" as="offset" />
          </mxGeometry>
        </mxCell>
        <mxCell id="Xt7bGyLg8HDcr2M8Km3x-46" style="edgeStyle=orthogonalEdgeStyle;rounded=0;orthogonalLoop=1;jettySize=auto;html=1;endArrow=ERzeroToMany;endFill=0;startArrow=ERone;startFill=0;entryX=1;entryY=0.5;entryDx=0;entryDy=0;exitX=0;exitY=0.5;exitDx=0;exitDy=0;" parent="1" source="eECu6zsZxVr2fr7YNmku-35" target="Xt7bGyLg8HDcr2M8Km3x-34" edge="1">
          <mxGeometry relative="1" as="geometry">
            <mxPoint x="1510" y="675" as="targetPoint" />
            <mxPoint x="1570" y="640" as="sourcePoint" />
            <Array as="points">
              <mxPoint x="1560" y="581" />
              <mxPoint x="1560" y="647" />
            </Array>
          </mxGeometry>
        </mxCell>
        <mxCell id="Xt7bGyLg8HDcr2M8Km3x-68" style="edgeStyle=orthogonalEdgeStyle;rounded=0;orthogonalLoop=1;jettySize=auto;html=1;entryX=0;entryY=0.5;entryDx=0;entryDy=0;endArrow=ERzeroToMany;endFill=0;startArrow=ERone;startFill=0;" parent="1" source="Xt7bGyLg8HDcr2M8Km3x-63" target="Xt7bGyLg8HDcr2M8Km3x-57" edge="1">
          <mxGeometry relative="1" as="geometry">
            <Array as="points">
              <mxPoint x="1210" y="1023" />
              <mxPoint x="1210" y="829" />
            </Array>
          </mxGeometry>
        </mxCell>
        <mxCell id="Xt7bGyLg8HDcr2M8Km3x-63" value="tipo_preco" style="swimlane;fontStyle=1;align=center;verticalAlign=top;childLayout=stackLayout;horizontal=1;startSize=26;horizontalStack=0;resizeParent=1;resizeParentMax=0;resizeLast=0;collapsible=1;marginBottom=0;" parent="1" vertex="1">
          <mxGeometry x="910" y="980" width="260" height="86" as="geometry" />
        </mxCell>
        <mxCell id="Xt7bGyLg8HDcr2M8Km3x-64" value="id: SERIAL" style="text;align=left;verticalAlign=top;spacingLeft=4;spacingRight=4;overflow=hidden;rotatable=0;points=[[0,0.5],[1,0.5]];portConstraint=eastwest;fillColor=#fff2cc;strokeColor=#d6b656;" parent="Xt7bGyLg8HDcr2M8Km3x-63" vertex="1">
          <mxGeometry y="26" width="260" height="26" as="geometry" />
        </mxCell>
        <mxCell id="Xt7bGyLg8HDcr2M8Km3x-65" value="nome: VARCHAR(100)" style="text;align=left;verticalAlign=top;spacingLeft=4;spacingRight=4;overflow=hidden;rotatable=0;points=[[0,0.5],[1,0.5]];portConstraint=eastwest;rounded=0;shadow=0;html=0;" parent="Xt7bGyLg8HDcr2M8Km3x-63" vertex="1">
          <mxGeometry y="52" width="260" height="26" as="geometry" />
        </mxCell>
        <mxCell id="Xt7bGyLg8HDcr2M8Km3x-66" value="" style="line;strokeWidth=1;fillColor=none;align=left;verticalAlign=middle;spacingTop=-1;spacingLeft=3;spacingRight=3;rotatable=0;labelPosition=right;points=[];portConstraint=eastwest;strokeColor=inherit;" parent="Xt7bGyLg8HDcr2M8Km3x-63" vertex="1">
          <mxGeometry y="78" width="260" height="8" as="geometry" />
        </mxCell>
        <mxCell id="Xt7bGyLg8HDcr2M8Km3x-71" style="edgeStyle=orthogonalEdgeStyle;rounded=0;orthogonalLoop=1;jettySize=auto;html=1;entryX=0;entryY=0.5;entryDx=0;entryDy=0;" parent="1" source="Xt7bGyLg8HDcr2M8Km3x-69" target="Xt7bGyLg8HDcr2M8Km3x-65" edge="1">
          <mxGeometry relative="1" as="geometry" />
        </mxCell>
        <mxCell id="Xt7bGyLg8HDcr2M8Km3x-69" value="&lt;span style=&quot;text-align: left;&quot;&gt;&#39;preço piso&#39;,&lt;br&gt;&#39;preço médio&#39;,&lt;br&gt;&#39;preço teto&#39;&lt;br&gt;&lt;/span&gt;" style="html=1;dropTarget=0;" parent="1" vertex="1">
          <mxGeometry x="870" y="1110" width="170" height="83" as="geometry" />
        </mxCell>
        <mxCell id="Xt7bGyLg8HDcr2M8Km3x-70" value="" style="shape=module;jettyWidth=8;jettyHeight=4;" parent="Xt7bGyLg8HDcr2M8Km3x-69" vertex="1">
          <mxGeometry x="1" width="20" height="20" relative="1" as="geometry">
            <mxPoint x="-27" y="7" as="offset" />
          </mxGeometry>
        </mxCell>
        <mxCell id="3DhGtUNR9gq0dcqXQN8T-9" value="custo" style="swimlane;fontStyle=1;align=center;verticalAlign=top;childLayout=stackLayout;horizontal=1;startSize=26;horizontalStack=0;resizeParent=1;resizeParentMax=0;resizeLast=0;collapsible=1;marginBottom=0;" parent="1" vertex="1">
          <mxGeometry x="490" y="1060" width="260" height="268" as="geometry" />
        </mxCell>
        <mxCell id="3DhGtUNR9gq0dcqXQN8T-10" value="id: SERIAL" style="text;align=left;verticalAlign=top;spacingLeft=4;spacingRight=4;overflow=hidden;rotatable=0;points=[[0,0.5],[1,0.5]];portConstraint=eastwest;fillColor=#fff2cc;strokeColor=#d6b656;" parent="3DhGtUNR9gq0dcqXQN8T-9" vertex="1">
          <mxGeometry y="26" width="260" height="26" as="geometry" />
        </mxCell>
        <mxCell id="3DhGtUNR9gq0dcqXQN8T-11" value="nome: VARCHAR(300)" style="text;align=left;verticalAlign=top;spacingLeft=4;spacingRight=4;overflow=hidden;rotatable=0;points=[[0,0.5],[1,0.5]];portConstraint=eastwest;rounded=0;shadow=0;html=0;" parent="3DhGtUNR9gq0dcqXQN8T-9" vertex="1">
          <mxGeometry y="52" width="260" height="26" as="geometry" />
        </mxCell>
        <mxCell id="3DhGtUNR9gq0dcqXQN8T-12" value="mes_inicio: VARCHAR(100)" style="text;align=left;verticalAlign=top;spacingLeft=4;spacingRight=4;overflow=hidden;rotatable=0;points=[[0,0.5],[1,0.5]];portConstraint=eastwest;rounded=0;shadow=0;html=0;" parent="3DhGtUNR9gq0dcqXQN8T-9" vertex="1">
          <mxGeometry y="78" width="260" height="26" as="geometry" />
        </mxCell>
        <mxCell id="3DhGtUNR9gq0dcqXQN8T-14" value="quantidade: SMALLINT" style="text;align=left;verticalAlign=top;spacingLeft=4;spacingRight=4;overflow=hidden;rotatable=0;points=[[0,0.5],[1,0.5]];portConstraint=eastwest;rounded=0;shadow=0;html=0;" parent="3DhGtUNR9gq0dcqXQN8T-9" vertex="1">
          <mxGeometry y="104" width="260" height="26" as="geometry" />
        </mxCell>
        <mxCell id="3DhGtUNR9gq0dcqXQN8T-15" value="preco: FLOAT" style="text;align=left;verticalAlign=top;spacingLeft=4;spacingRight=4;overflow=hidden;rotatable=0;points=[[0,0.5],[1,0.5]];portConstraint=eastwest;rounded=0;shadow=0;html=0;" parent="3DhGtUNR9gq0dcqXQN8T-9" vertex="1">
          <mxGeometry y="130" width="260" height="26" as="geometry" />
        </mxCell>
        <mxCell id="3DhGtUNR9gq0dcqXQN8T-16" value="numero_dias: SMALLINT" style="text;align=left;verticalAlign=top;spacingLeft=4;spacingRight=4;overflow=hidden;rotatable=0;points=[[0,0.5],[1,0.5]];portConstraint=eastwest;rounded=0;shadow=0;html=0;" parent="3DhGtUNR9gq0dcqXQN8T-9" vertex="1">
          <mxGeometry y="156" width="260" height="26" as="geometry" />
        </mxCell>
        <mxCell id="3DhGtUNR9gq0dcqXQN8T-17" value="valido: BOOLEAN" style="text;align=left;verticalAlign=top;spacingLeft=4;spacingRight=4;overflow=hidden;rotatable=0;points=[[0,0.5],[1,0.5]];portConstraint=eastwest;rounded=0;shadow=0;html=0;" parent="3DhGtUNR9gq0dcqXQN8T-9" vertex="1">
          <mxGeometry y="182" width="260" height="26" as="geometry" />
        </mxCell>
        <mxCell id="3DhGtUNR9gq0dcqXQN8T-18" value="justificativa:  VARCHAR(1200)" style="text;align=left;verticalAlign=top;spacingLeft=4;spacingRight=4;overflow=hidden;rotatable=0;points=[[0,0.5],[1,0.5]];portConstraint=eastwest;rounded=0;shadow=0;html=0;" parent="3DhGtUNR9gq0dcqXQN8T-9" vertex="1">
          <mxGeometry y="208" width="260" height="26" as="geometry" />
        </mxCell>
        <mxCell id="3DhGtUNR9gq0dcqXQN8T-20" value="id_total_custo: SMALLINT, FK  total_custo(id)" style="text;align=left;verticalAlign=top;spacingLeft=4;spacingRight=4;overflow=hidden;rotatable=0;points=[[0,0.5],[1,0.5]];portConstraint=eastwest;rounded=0;shadow=0;html=0;fillColor=#f8cecc;strokeColor=#b85450;" parent="3DhGtUNR9gq0dcqXQN8T-9" vertex="1">
          <mxGeometry y="234" width="260" height="26" as="geometry" />
        </mxCell>
        <mxCell id="3DhGtUNR9gq0dcqXQN8T-13" value="" style="line;strokeWidth=1;fillColor=none;align=left;verticalAlign=middle;spacingTop=-1;spacingLeft=3;spacingRight=3;rotatable=0;labelPosition=right;points=[];portConstraint=eastwest;strokeColor=inherit;" parent="3DhGtUNR9gq0dcqXQN8T-9" vertex="1">
          <mxGeometry y="260" width="260" height="8" as="geometry" />
        </mxCell>
        <mxCell id="3DhGtUNR9gq0dcqXQN8T-28" style="edgeStyle=orthogonalEdgeStyle;rounded=0;orthogonalLoop=1;jettySize=auto;html=1;entryX=0;entryY=0.5;entryDx=0;entryDy=0;endArrow=ERzeroToMany;endFill=0;startArrow=ERzeroToMany;startFill=0;" parent="1" source="3DhGtUNR9gq0dcqXQN8T-21" target="3DhGtUNR9gq0dcqXQN8T-20" edge="1">
          <mxGeometry relative="1" as="geometry">
            <mxPoint x="240" y="1300" as="targetPoint" />
          </mxGeometry>
        </mxCell>
        <mxCell id="3DhGtUNR9gq0dcqXQN8T-21" value="total_custo" style="swimlane;fontStyle=1;align=center;verticalAlign=top;childLayout=stackLayout;horizontal=1;startSize=26;horizontalStack=0;resizeParent=1;resizeParentMax=0;resizeLast=0;collapsible=1;marginBottom=0;" parent="1" vertex="1">
          <mxGeometry x="110" y="1060" width="260" height="112" as="geometry" />
        </mxCell>
        <mxCell id="3DhGtUNR9gq0dcqXQN8T-22" value="id: SERIAL" style="text;align=left;verticalAlign=top;spacingLeft=4;spacingRight=4;overflow=hidden;rotatable=0;points=[[0,0.5],[1,0.5]];portConstraint=eastwest;fillColor=#fff2cc;strokeColor=#d6b656;" parent="3DhGtUNR9gq0dcqXQN8T-21" vertex="1">
          <mxGeometry y="26" width="260" height="26" as="geometry" />
        </mxCell>
        <mxCell id="3DhGtUNR9gq0dcqXQN8T-23" value="resultado: FLOAT" style="text;align=left;verticalAlign=top;spacingLeft=4;spacingRight=4;overflow=hidden;rotatable=0;points=[[0,0.5],[1,0.5]];portConstraint=eastwest;rounded=0;shadow=0;html=0;" parent="3DhGtUNR9gq0dcqXQN8T-21" vertex="1">
          <mxGeometry y="52" width="260" height="26" as="geometry" />
        </mxCell>
        <mxCell id="3DhGtUNR9gq0dcqXQN8T-26" value="data_criacao: TIMESTAMP, DEFAULT NOW()" style="text;align=left;verticalAlign=top;spacingLeft=4;spacingRight=4;overflow=hidden;rotatable=0;points=[[0,0.5],[1,0.5]];portConstraint=eastwest;rounded=0;shadow=0;html=0;" parent="3DhGtUNR9gq0dcqXQN8T-21" vertex="1">
          <mxGeometry y="78" width="260" height="26" as="geometry" />
        </mxCell>
        <mxCell id="3DhGtUNR9gq0dcqXQN8T-24" value="" style="line;strokeWidth=1;fillColor=none;align=left;verticalAlign=middle;spacingTop=-1;spacingLeft=3;spacingRight=3;rotatable=0;labelPosition=right;points=[];portConstraint=eastwest;strokeColor=inherit;" parent="3DhGtUNR9gq0dcqXQN8T-21" vertex="1">
          <mxGeometry y="104" width="260" height="8" as="geometry" />
        </mxCell>
      </root>
    </mxGraphModel>
  </diagram>
</mxfile>
